<svg xmlns="http://www.w3.org/2000/svg" version="1.0" width="90" height="120" viewBox="0 0 600.000000 600.000000" preserveAspectRatio="xMidYMid meet">
  <g transform="translate(-500.000000,600.000000) scale(0.100000,-0.100000)" fill="#000000" stroke="none">
  <path d="M5195 7117 c-20 -16 -27 -33 -28 -60 -1 -32 6 -45 44 -82 l44 -45 60 60 60 61 -47 44 c-54 52 -92 58 -133 22z"/>
  <path d="M9747 6966 c-66 -24 -104 -57 -268 -238 -266 -293 -418 -475 -499 -596 l-15 -22 -85 15 c-177 33 -433 29 -645 -10 -28 -5 -33 -1 -63 50 -60 100 -269 346 -531 624 -145 154 -188 181 -286 181 -121 -1 -190 -61 -279 -244 -82 -168 -131 -346 -157 -566 -26 -227 2 -654 56 -872 l16 -64 -46 -93 c-56 -113 -108 -268 -125 -372 -8 -50 -10 -124 -6 -210 9 -209 16 -269 32 -269 8 0 14 -5 14 -11 0 -23 65 -163 111 -240 27 -45 49 -84 49 -85 0 -2 -134 -5 -297 -6 l-297 -3 -15 -26 c-13 -24 -13 -29 2 -53 l17 -26 341 0 341 0 89 -84 c49 -46 129 -112 178 -147 l90 -63 -37 -17 c-467 -216 -618 -291 -626 -309 -6 -13 -5 -29 2 -45 21 -46 55 -35 429 145 l354 170 49 -25 c180 -91 446 -169 684 -201 144 -19 396 -18 538 2 244 33 492 106 670 195 l57 29 113 -54 c62 -29 172 -82 243 -116 303 -146 358 -170 385 -170 35 0 52 21 48 57 -3 32 22 18 -392 218 -252 121 -267 130 -248 145 10 8 56 42 101 74 45 33 115 92 156 133 l75 73 339 0 c340 0 340 0 355 22 22 31 20 54 -6 72 -19 14 -66 16 -310 16 l-288 0 34 53 c41 64 87 156 112 222 10 28 21 52 24 55 15 13 44 214 44 310 0 180 -47 366 -138 547 l-45 91 24 113 c35 167 55 375 55 573 0 339 -57 603 -182 849 -64 125 -85 149 -160 186 -67 34 -119 39 -181 17z m-2322 -124 c17 -10 48 -39 71 -63 22 -24 76 -82 120 -129 223 -241 477 -545 471 -563 -1 -5 -45 -24 -97 -43 -304 -107 -620 -326 -815 -564 -57 -69 -100 -93 -109 -61 -14 44 -38 274 -43 411 -9 249 22 497 88 695 44 132 125 282 169 311 42 29 103 31 145 6z m2477 -7 c69 -47 172 -291 217 -512 50 -245 50 -565 0 -877 -9 -52 -14 -65 -21 -53 -5 10 -15 17 -22 17 -7 0 -36 29 -65 64 -193 238 -527 469 -826 572 -44 15 -84 31 -89 35 -18 16 224 310 486 590 57 61 105 115 107 121 2 5 24 23 49 39 59 37 113 39 164 4z m-1110 -810 c403 -53 784 -245 1058 -532 l75 -78 -668 -3 c-367 -1 -967 -1 -1335 0 l-667 3 95 95 c385 387 933 583 1442 515z m1243 -757 c22 -32 89 -206 120 -313 36 -123 63 -289 71 -434 l7 -121 -1648 0 -1648 0 6 118 c14 262 97 583 187 725 l30 47 1429 0 1430 0 16 -22z m175 -992 c0 -30 -92 -192 -154 -273 l-41 -53 -365 0 c-403 0 -410 -1 -410 -59 0 -54 6 -56 348 -61 l315 -5 -70 -57 c-39 -31 -110 -82 -158 -114 l-88 -57 -134 66 c-73 37 -144 67 -157 67 -34 0 -60 -33 -52 -65 6 -22 26 -36 113 -77 73 -34 102 -53 92 -58 -45 -24 -232 -87 -344 -115 -206 -52 -357 -68 -574 -62 -147 4 -214 10 -320 32 -156 31 -328 81 -421 123 l-65 29 102 52 c81 40 104 56 109 76 8 31 -19 65 -50 65 -12 0 -81 -29 -154 -65 -133 -64 -134 -65 -165 -49 -48 25 -196 129 -247 174 l-45 39 310 1 c343 0 355 2 355 60 0 61 5 60 -402 60 -341 0 -372 1 -385 18 -65 82 -173 269 -173 301 0 8 426 11 1615 11 888 0 1615 -2 1615 -4z"/>
  <path d="M7463 4913 c-29 -6 -29 -14 6 -95 36 -84 108 -186 160 -227 90 -71 269 -121 385 -107 64 8 64 8 6 131 -51 107 -139 203 -224 245 -90 45 -248 69 -333 53z"/>
  <path d="M9549 4909 c-199 -29 -336 -145 -413 -351 l-25 -66 48 -7 c26 -3 85 -1 131 5 141 19 237 66 314 151 44 49 119 186 131 240 6 23 3 27 -26 33 -39 7 -86 6 -160 -5z"/>
  <path d="M8446 4134 c-54 -20 -78 -43 -74 -73 4 -32 54 -67 109 -76 41 -7 41 -7 36 -45 -7 -53 -32 -102 -75 -145 -49 -49 -99 -74 -183 -90 -80 -15 -99 -27 -99 -65 0 -43 21 -53 93 -47 119 10 243 78 305 167 15 22 29 39 32 39 3 0 21 -22 41 -48 65 -85 187 -148 305 -158 58 -5 63 -4 79 20 13 20 14 30 5 46 -12 24 -41 41 -68 41 -11 0 -49 9 -84 20 -109 33 -186 116 -203 217 -6 37 -4 44 12 49 54 17 95 40 105 57 15 28 -18 68 -73 89 -56 21 -207 23 -263 2z"/>
  <path d="M5435 6870 l-60 -60 48 -47 47 -48 0 58 0 57 55 0 c30 0 55 4 55 8 0 4 -19 27 -43 50 l-43 42 -59 -60z"/>
  <path d="M5640 6725 l0 -55 57 0 57 0 -54 55 c-30 30 -56 55 -57 55 -2 0 -3 -25 -3 -55z"/>
  <path d="M5546 6638 c10 -13 34 -38 52 -56 l32 -33 0 56 0 55 -52 0 -51 0 19 -22z"/>
  <path d="M5809 6600 c-1 -8 -3 -33 -4 -55 -2 -22 -4 -42 -4 -45 -1 -3 -26 -5 -56 -3 -30 1 -55 -2 -55 -5 0 -4 27 -34 60 -67 l60 -59 0 57 0 57 60 0 c33 0 60 4 60 8 0 15 -120 126 -121 112z"/>
  <path d="M5988 6372 l-3 -57 -58 -5 -58 -5 56 -55 55 -55 60 61 59 60 -54 56 -54 56 -3 -56z"/>
  <path d="M6158 6132 c-227 -227 -231 -233 -182 -291 20 -24 34 -31 62 -31 34 0 50 14 241 204 193 193 205 207 205 242 0 46 -39 84 -87 84 -28 0 -56 -25 -239 -208z"/>
  <path d="M6415 5974 c-55 -13 -106 -25 -114 -26 -8 -2 105 -134 270 -317 l284 -315 27 89 c50 162 66 124 -152 362 -106 114 -198 213 -204 219 -8 9 -37 5 -111 -12z"/>
  <path d="M10142 2899 c-106 -109 -181 -179 -193 -179 -11 0 -46 18 -78 40 -153 105 -290 129 -480 87 l-54 -12 181 -174 c113 -109 182 -182 182 -194 0 -10 -13 -36 -28 -56 -50 -64 -84 -130 -103 -203 -23 -88 -24 -158 -3 -266 l17 -83 174 180 c96 100 181 181 189 181 7 0 45 -20 84 -45 85 -56 177 -91 257 -101 59 -6 223 10 251 26 10 4 -41 59 -162 176 -116 112 -176 177 -176 191 0 11 20 50 44 86 84 126 116 255 97 392 -21 153 -2 157 -199 -46z m144 -61 c-8 -87 -44 -181 -101 -267 -34 -51 -45 -76 -45 -107 0 -37 7 -46 143 -181 156 -154 156 -153 57 -153 -91 0 -221 48 -302 111 -44 35 -88 45 -127 29 -16 -6 -86 -72 -156 -146 -70 -74 -131 -132 -136 -128 -5 3 -9 32 -9 64 0 117 32 208 111 319 67 93 64 99 -108 272 -142 144 -145 148 -118 155 41 10 145 -2 210 -25 31 -11 90 -43 131 -71 60 -40 83 -50 117 -50 41 0 45 2 182 145 129 135 140 144 148 123 5 -13 6 -53 3 -90z"/>
  <path d="M9902 2524 c-15 -11 -22 -25 -22 -50 0 -67 73 -99 118 -51 61 65 -22 153 -96 101z m58 -54 c0 -5 -4 -10 -10 -10 -5 0 -10 5 -10 10 0 6 5 10 10 10 6 0 10 -4 10 -10z"/>
  <path d="M7460 2815 c-105 -24 -201 -77 -264 -146 l-54 -61 -8 81 c-5 59 -10 81 -20 81 -8 0 -14 7 -14 15 0 13 -23 15 -146 15 -134 0 -145 -1 -140 -17 16 -53 47 -197 44 -208 -3 -15 -103 96 -129 145 -9 16 -27 40 -40 54 l-24 26 -237 0 c-131 0 -238 -3 -238 -6 0 -4 21 -45 47 -93 26 -47 52 -97 60 -111 18 -34 17 -266 -2 -395 -18 -125 -18 -125 0 -125 8 0 15 -7 15 -15 0 -13 22 -15 140 -15 l140 0 0 63 c0 34 3 85 6 114 l7 52 66 -53 c74 -60 132 -100 209 -145 50 -29 59 -31 152 -31 l100 0 0 98 1 97 22 -39 c32 -55 94 -134 115 -145 11 -6 58 -18 106 -27 73 -15 99 -16 160 -6 151 23 269 92 350 202 50 67 45 72 67 -60 9 -55 19 -81 36 -97 l24 -23 600 0 c471 0 601 3 604 13 16 48 38 299 42 490 5 206 4 227 -11 227 -9 0 -16 7 -16 15 0 13 -32 15 -231 15 l-231 0 6 -37 c13 -87 27 -373 21 -434 l-7 -67 -34 66 c-31 59 -33 68 -19 78 21 15 20 141 -1 259 -27 145 5 135 -430 135 l-364 0 -1 -32 c0 -18 -3 -51 -7 -72 l-7 -39 -29 44 c-47 71 -72 91 -133 105 -91 22 -228 26 -303 9z m264 -67 c68 -13 95 -42 127 -134 27 -75 23 -186 -9 -257 -48 -108 -182 -211 -310 -238 -60 -12 -174 -7 -232 10 -43 13 -91 85 -122 183 -60 191 52 375 265 433 64 17 204 19 281 3z m-1059 -65 c41 -61 205 -231 243 -252 22 -12 22 -11 22 58 0 38 -7 105 -15 148 -8 43 -15 84 -15 91 0 8 21 12 70 12 l70 0 0 -269 c0 -148 -3 -283 -6 -300 -6 -31 -7 -31 -69 -31 -60 0 -65 2 -167 69 -57 38 -149 112 -204 164 l-100 96 4 -139 c3 -76 2 -150 -2 -164 -6 -25 -10 -26 -72 -26 l-66 0 9 93 c4 50 7 154 5 230 -2 125 -4 141 -26 175 -12 20 -31 52 -40 70 l-17 32 169 0 169 0 38 -57z m1969 30 c12 -54 25 -179 21 -198 -2 -11 -4 -23 -4 -26 -1 -10 -89 -46 -160 -65 -55 -16 -60 -19 -39 -27 12 -4 60 -11 106 -14 l83 -6 26 -51 c26 -51 53 -136 53 -168 0 -16 -14 -18 -154 -18 l-154 0 -7 38 c-9 51 -53 128 -90 159 l-30 26 -3 -112 -3 -111 -129 0 c-148 0 -131 -12 -150 110 -11 72 -13 356 -4 438 l7 52 313 0 312 0 6 -27z m531 17 c8 -13 -11 -384 -26 -498 l-12 -92 -144 0 -145 0 6 23 c13 41 18 341 8 452 -5 61 -8 113 -5 118 6 11 311 9 318 -3z"/>
  <path d="M7432 2623 c-25 -57 -23 -222 5 -283 23 -52 62 -101 104 -131 l29 -21 25 54 c62 132 10 309 -117 399 l-28 21 -18 -39z m117 -195 c13 -59 14 -98 2 -116 -15 -24 -41 63 -41 136 1 60 2 65 15 48 7 -10 19 -40 24 -68z"/>
  <path d="M8296 2613 c-3 -21 -8 -66 -12 -100 -7 -72 -4 -74 64 -43 l43 19 -16 38 c-17 41 -64 123 -70 123 -2 0 -6 -17 -9 -37z"/>
  </g>
</svg>
